<?xml version="1.0" standalone="no"?>
<!DOCTYPE svg PUBLIC "-//W3C//DTD SVG 20010904//EN"
 "http://www.w3.org/TR/2001/REC-SVG-20010904/DTD/svg10.dtd">
<svg version="1.0" xmlns="http://www.w3.org/2000/svg"
 width="512.000000pt" height="512.000000pt" viewBox="0 0 512.000000 512.000000"
 preserveAspectRatio="xMidYMid meet">
<metadata>
Created by potrace 1.14, written by Peter Selinger 2001-2017
</metadata>
<g transform="translate(0.000000,512.000000) scale(0.100000,-0.100000)"
fill="#000000" stroke="none">
<path d="M2885 5109 c-42 -12 -81 -51 -95 -96 -21 -64 -99 -215 -145 -278 -47
-65 -165 -186 -165 -169 0 13 -139 113 -197 143 -44 22 -161 56 -228 66 -175
26 -394 -28 -437 -108 -13 -25 -18 -88 -6 -81 4 3 8 0 8 -5 0 -13 69 -60 96
-65 51 -11 148 -67 142 -82 -2 -5 -11 -10 -21 -11 -66 -10 -320 -105 -432
-161 -278 -139 -544 -385 -646 -599 -35 -74 -60 -166 -49 -183 4 -6 -21 -66
-55 -134 -53 -104 -76 -159 -141 -331 -4 -11 -8 -24 -9 -30 -2 -5 -8 -30 -15
-55 -14 -52 -18 -70 -19 -88 -1 -7 -4 -11 -8 -9 -5 3 -8 -7 -9 -21 0 -15 -3
-45 -8 -67 -4 -22 -7 -48 -7 -57 0 -10 -3 -18 -7 -18 -4 0 -8 -21 -9 -48 -1
-26 -3 -62 -4 -79 -1 -22 -5 -30 -13 -26 -7 4 -6 1 1 -9 7 -8 11 -17 8 -20 -3
-3 -6 -37 -6 -77 -1 -51 -4 -69 -12 -65 -8 5 -7 2 0 -7 17 -17 17 -49 1 -49
-9 0 -10 -2 -2 -8 6 -4 12 -32 13 -62 0 -30 3 -66 6 -78 3 -19 1 -23 -13 -17
-11 4 -9 -1 7 -16 23 -22 23 -23 5 -30 -17 -7 -17 -8 -1 -8 17 -1 19 -11 20
-113 0 -16 4 -28 8 -28 3 0 9 -9 12 -20 3 -13 0 -20 -8 -20 -8 0 -16 -4 -19
-9 -4 -5 3 -7 14 -4 15 4 20 0 20 -16 0 -15 -4 -20 -12 -16 -7 4 -6 1 3 -7 21
-18 31 -59 17 -75 -8 -10 -7 -12 4 -8 11 5 17 -2 20 -24 2 -17 0 -33 -6 -35
-6 -2 -3 -5 7 -5 10 -1 18 -9 18 -21 2 -28 8 -45 34 -105 10 -21 11 -33 3 -42
-8 -10 -7 -12 6 -7 9 3 16 2 16 -4 0 -6 -6 -13 -12 -15 -8 -3 -5 -6 5 -6 10
-1 15 -5 12 -11 -3 -5 -1 -10 6 -10 6 0 9 -8 6 -20 -3 -11 -2 -18 2 -16 8 6
61 -97 61 -118 0 -8 4 -16 8 -18 4 -2 19 -21 32 -42 15 -25 18 -37 9 -32 -8 4
-4 -1 8 -10 25 -18 30 -39 11 -48 -7 -3 -4 -4 7 -1 15 3 24 -4 38 -34 11 -21
29 -49 41 -62 35 -39 71 -93 55 -84 -7 4 4 -9 26 -29 22 -21 35 -35 30 -32 -6
2 31 -39 82 -92 51 -52 91 -98 88 -100 -3 -3 1 -12 8 -20 10 -13 9 -15 -5 -9
-10 3 -18 2 -18 -3 0 -11 23 -13 33 -3 4 3 2 12 -4 20 -6 7 -9 13 -6 13 10 0
107 -93 107 -102 0 -5 -4 -7 -9 -3 -15 9 -25 -15 -12 -28 9 -9 10 -7 5 7 -5
13 -4 17 4 12 6 -3 13 -2 17 4 5 9 58 -26 103 -68 7 -6 17 -12 22 -12 5 0 6
-8 3 -17 -5 -13 -2 -15 11 -10 10 4 19 1 22 -8 4 -8 10 -12 15 -9 5 3 20 -5
33 -18 13 -13 30 -24 37 -26 8 -2 25 -10 38 -19 23 -15 24 -16 6 -29 -24 -17
-12 -18 15 -2 14 9 23 10 28 3 4 -6 21 -17 37 -25 17 -8 33 -19 37 -25 4 -5 8
-7 8 -3 0 4 22 -4 49 -17 27 -14 54 -25 60 -25 5 0 15 -9 21 -20 6 -11 16 -20
23 -20 7 0 6 4 -3 10 -13 8 -13 10 1 10 9 0 22 -7 29 -15 6 -8 15 -14 18 -13
12 2 67 -15 80 -25 6 -5 12 -7 12 -4 0 4 21 -3 46 -13 25 -11 50 -18 55 -14 5
3 9 0 9 -6 0 -6 4 -9 9 -5 5 3 17 -2 25 -11 9 -9 24 -13 32 -10 21 8 65 -4 58
-15 -3 -5 0 -9 5 -9 6 0 11 5 11 11 0 5 5 7 10 4 6 -4 8 -10 5 -15 -6 -10 34
-35 42 -27 2 3 -5 8 -16 12 -12 3 -19 10 -16 14 6 10 55 2 72 -12 9 -6 13 -5
13 3 0 9 7 7 22 -6 12 -10 18 -13 14 -7 -5 10 1 11 26 6 18 -3 36 -10 39 -16
4 -5 8 -4 11 4 5 15 38 5 38 -12 0 -8 -4 -8 -15 1 -9 7 -15 8 -15 2 0 -5 7
-13 16 -16 11 -4 18 1 21 15 6 22 6 22 25 -2 13 -15 18 -18 14 -7 -4 15 3 16
72 11 42 -3 86 -6 97 -7 14 -1 19 -7 17 -21 -2 -16 -1 -17 7 -5 5 8 7 18 5 22
-3 4 16 8 43 9 26 1 62 2 78 4 17 1 38 -4 47 -12 16 -15 43 -9 33 7 -8 13 32
19 46 6 9 -8 10 -8 5 2 -4 7 -1 12 8 12 9 0 13 -6 10 -14 -9 -23 10 -26 36 -4
l25 20 -27 -16 c-16 -9 -28 -13 -28 -9 0 12 14 28 25 29 6 1 33 5 60 10 28 4
60 7 73 7 12 -1 22 3 22 8 0 5 5 9 10 9 6 0 10 -8 8 -17 -4 -22 41 -27 49 -7
3 8 9 11 14 8 5 -3 9 0 9 5 0 15 -20 14 -26 -2 -2 -7 -13 -13 -24 -14 -12 -1
-17 3 -14 12 4 11 52 28 111 41 6 1 28 8 49 14 30 10 38 10 45 -1 12 -20 11
-29 -3 -26 -7 1 -13 -8 -14 -20 -1 -12 2 -20 7 -17 4 2 6 11 3 19 -4 10 0 13
15 10 20 -4 20 -3 6 25 -9 18 -11 31 -5 35 6 3 10 -1 10 -10 0 -9 5 -13 10
-10 6 4 8 11 5 16 -5 8 16 14 38 10 4 0 7 4 7 9 0 5 3 9 8 8 7 -1 56 17 75 29
6 4 7 0 3 -8 -4 -8 -1 -7 6 3 17 20 52 27 53 11 0 -7 11 -20 25 -29 24 -15 25
-15 5 3 -11 10 -21 26 -23 36 -3 15 0 16 17 5 11 -6 17 -16 14 -22 -4 -5 -1
-6 7 -1 10 6 9 11 -5 21 -21 16 -21 16 21 37 24 13 34 13 44 4 10 -9 12 -9 8
3 -3 10 9 23 35 38 46 26 57 27 57 7 0 -9 -6 -12 -15 -9 -8 4 -15 2 -15 -4 0
-6 7 -9 16 -8 19 3 41 36 24 36 -5 0 -10 5 -10 10 0 6 5 10 11 10 6 0 25 10
42 22 18 13 28 16 23 7 -4 -7 1 -3 12 10 13 16 21 20 26 12 4 -6 13 -11 19
-11 7 0 6 4 -3 10 -13 8 -13 11 -1 22 10 10 12 10 7 1 -4 -7 -3 -13 2 -13 5 0
12 9 15 20 3 11 11 20 17 20 7 0 10 -7 6 -16 -3 -9 -2 -12 4 -9 6 4 9 12 8 19
-2 7 14 27 35 45 20 18 37 31 37 27 0 -3 11 5 23 17 61 57 86 77 97 77 6 0 9
4 6 9 -3 5 0 14 8 20 11 9 15 9 19 -1 3 -7 6 -2 6 12 1 20 3 22 11 10 5 -8 10
-12 11 -7 1 4 2 10 3 15 1 4 8 17 16 29 11 17 18 20 33 11 16 -8 18 -7 9 8
-12 22 25 69 43 54 8 -7 11 -3 11 13 -1 13 4 21 11 20 7 -2 12 0 11 5 -5 16
24 53 38 48 8 -3 14 -1 14 4 0 6 -5 10 -11 10 -5 0 -7 5 -3 12 5 7 11 5 21 -8
13 -18 14 -18 9 6 -8 33 45 98 63 77 6 -8 9 -17 6 -20 -3 -4 -2 -5 2 -2 10 8
13 36 3 30 -13 -8 -18 18 -8 38 5 9 16 17 26 18 9 0 12 3 5 5 -11 5 41 95 59
102 5 2 6 8 2 13 -3 5 0 9 7 9 7 0 10 3 6 6 -3 3 7 27 22 52 15 26 34 62 42
79 10 24 19 31 31 27 10 -3 18 -1 18 5 0 6 -6 10 -12 8 -7 -1 -12 3 -11 8 5
21 29 81 43 105 8 14 15 34 17 45 4 22 23 36 37 28 5 -3 6 -1 2 6 -4 6 -12 8
-18 5 -7 -4 -8 2 -3 17 4 13 11 25 16 27 4 2 5 10 2 18 -3 8 0 20 6 28 6 7 7
17 3 21 -4 5 1 5 11 2 14 -5 16 -3 9 9 -9 17 -4 74 8 74 4 0 7 14 8 32 0 17 6
34 12 38 8 5 9 10 2 14 -15 9 -2 46 17 47 13 0 12 2 -3 8 -18 7 -18 8 -2 14
14 6 16 10 7 21 -6 7 -9 15 -6 17 2 3 5 22 7 42 1 26 6 36 15 33 10 -4 10 -1
0 14 -9 16 -9 24 1 41 9 13 9 18 2 14 -14 -9 -9 27 5 37 6 5 4 8 -4 8 -11 0
-9 4 5 15 19 15 19 15 -1 8 -17 -6 -18 -5 -7 9 9 12 10 18 2 23 -8 5 -6 15 5
32 10 14 12 23 7 19 -7 -4 -11 20 -11 69 0 42 -3 80 -6 85 -4 6 -1 10 5 10 7
0 8 6 1 18 -7 13 -6 23 1 30 9 9 9 12 -1 12 -11 0 -11 3 0 17 8 9 9 14 3 10
-7 -4 -13 14 -18 56 -3 34 -9 80 -13 102 -4 22 -7 52 -7 68 -1 15 -4 27 -9 27
-4 0 -6 3 -6 8 1 4 0 10 -1 15 -3 9 -4 14 -14 57 -15 69 -48 171 -90 277 -32
82 -110 243 -138 288 -7 10 -36 55 -64 100 -110 173 -290 376 -463 518 -116
95 -299 211 -444 281 -74 36 -78 40 -72 64 4 15 11 30 17 33 6 4 5 9 -3 12 -8
3 -9 6 -3 6 14 1 1 90 -17 119 -25 39 -96 55 -142 30 -12 -6 -48 -36 -80 -67
-32 -31 -62 -56 -65 -56 -4 0 -43 9 -87 19 -44 10 -84 19 -90 20 -29 4 -31 16
-18 88 20 114 10 265 -26 398 -22 78 -85 125 -146 109z m-30 -5007 c-8 -8 -25
10 -19 20 4 6 9 5 15 -3 4 -7 6 -15 4 -17z"/>
<path d="M3073 4635 c0 -8 4 -12 9 -9 5 3 6 10 3 15 -9 13 -12 11 -12 -6z"/>
<path d="M1610 4560 c0 -5 5 -10 11 -10 5 0 7 5 4 10 -3 6 -8 10 -11 10 -2 0
-4 -4 -4 -10z"/>
<path d="M1653 4519 c-2 -23 3 -25 10 -4 4 8 3 16 -1 19 -4 3 -9 -4 -9 -15z"/>
<path d="M1670 4500 c0 -5 7 -7 15 -4 8 4 15 8 15 10 0 2 -7 4 -15 4 -8 0 -15
-4 -15 -10z"/>
<path d="M1711 4484 c0 -11 3 -14 6 -6 3 7 2 16 -1 19 -3 4 -6 -2 -5 -13z"/>
<path d="M1750 4483 c0 -5 5 -15 10 -23 7 -12 9 -10 7 8 -1 19 -17 33 -17 15z"/>
<path d="M1736 4457 c3 -10 9 -15 12 -12 3 3 0 11 -7 18 -10 9 -11 8 -5 -6z"/>
<path d="M1786 4444 c-24 -24 -19 -30 7 -8 12 10 24 20 26 21 2 2 -1 3 -7 3
-6 0 -18 -7 -26 -16z"/>
<path d="M1820 4440 c-9 -6 -10 -10 -3 -10 6 0 15 5 18 10 8 12 4 12 -15 0z"/>
<path d="M4850 1899 c0 -5 5 -7 10 -4 6 3 10 8 10 11 0 2 -4 4 -10 4 -5 0 -10
-5 -10 -11z"/>
<path d="M453 1785 c0 -8 4 -12 9 -9 5 3 6 10 3 15 -9 13 -12 11 -12 -6z"/>
<path d="M4798 1683 c7 -3 16 -2 19 1 4 3 -2 6 -13 5 -11 0 -14 -3 -6 -6z"/>
<path d="M517 1560 c3 -11 9 -22 13 -25 5 -3 6 4 3 15 -3 11 -9 22 -13 25 -5
3 -6 -4 -3 -15z"/>
<path d="M554 1449 c-3 -6 -2 -15 3 -20 5 -5 9 -1 9 11 0 23 -2 24 -12 9z"/>
<path d="M4715 1440 c3 -5 8 -10 11 -10 2 0 4 5 4 10 0 6 -5 10 -11 10 -5 0
-7 -4 -4 -10z"/>
<path d="M590 1396 c0 -2 8 -10 18 -17 15 -13 16 -12 3 4 -13 16 -21 21 -21
13z"/>
<path d="M4670 1365 c-7 -9 -8 -15 -2 -15 5 0 12 7 16 15 3 8 4 15 2 15 -2 0
-9 -7 -16 -15z"/>
<path d="M595 1340 c3 -5 8 -10 11 -10 2 0 4 5 4 10 0 6 -5 10 -11 10 -5 0 -7
-4 -4 -10z"/>
<path d="M4670 1330 c-8 -5 -12 -12 -9 -15 4 -3 12 1 19 10 14 17 11 19 -10 5z"/>
<path d="M625 1319 c-4 -6 -5 -12 -2 -15 2 -3 7 2 10 11 7 17 1 20 -8 4z"/>
<path d="M4639 1308 c-6 -20 -6 -39 0 -42 4 -3 7 6 7 20 0 20 -4 32 -7 22z"/>
<path d="M656 1277 c3 -10 9 -15 12 -12 3 3 0 11 -7 18 -10 9 -11 8 -5 -6z"/>
<path d="M4610 1250 c-9 -6 -10 -10 -3 -10 6 0 15 5 18 10 8 12 4 12 -15 0z"/>
<path d="M670 1239 c0 -5 5 -7 10 -4 6 3 10 8 10 11 0 2 -4 4 -10 4 -5 0 -10
-5 -10 -11z"/>
<path d="M676 1207 c3 -10 9 -15 12 -12 3 3 0 11 -7 18 -10 9 -11 8 -5 -6z"/>
<path d="M4605 1200 c3 -5 8 -10 11 -10 2 0 4 5 4 10 0 6 -5 10 -11 10 -5 0
-7 -4 -4 -10z"/>
<path d="M4556 1138 c3 -4 0 -8 -5 -8 -6 0 -11 -4 -11 -8 0 -5 7 -9 15 -9 8 0
13 3 10 5 -3 3 0 10 5 17 7 8 5 12 -5 12 -8 0 -12 -4 -9 -9z"/>
<path d="M737 1116 c-4 -10 -1 -13 8 -9 8 3 12 9 9 14 -7 12 -11 11 -17 -5z"/>
<path d="M4531 1091 c-8 -5 -9 -11 -3 -15 5 -3 12 1 16 9 6 17 6 18 -13 6z"/>
<path d="M736 1082 c-2 -4 9 -8 25 -8 33 -2 33 4 1 11 -12 2 -24 1 -26 -3z"/>
<path d="M790 1051 c0 -10 19 -25 25 -20 1 2 -3 10 -11 17 -8 7 -14 8 -14 3z"/>
<path d="M826 1001 c4 -17 3 -21 -6 -16 -9 6 -11 4 -5 -4 5 -9 11 -9 17 -3 7
7 6 16 -1 29 -11 16 -11 15 -5 -6z"/>
<path d="M4435 980 c-3 -6 1 -7 9 -4 18 7 21 14 7 14 -6 0 -13 -4 -16 -10z"/>
<path d="M4445 960 c-3 -6 1 -7 9 -4 18 7 21 14 7 14 -6 0 -13 -4 -16 -10z"/>
<path d="M840 940 c-12 -7 -10 -9 7 -7 12 0 19 5 17 9 -6 10 -6 10 -24 -2z"/>
<path d="M876 923 c-6 -14 -5 -15 5 -6 7 7 10 15 7 18 -3 3 -9 -2 -12 -12z"/>
<path d="M4415 921 c-3 -5 -2 -12 3 -15 5 -3 9 1 9 9 0 17 -3 19 -12 6z"/>
<path d="M896 897 c3 -10 9 -15 12 -12 3 3 0 11 -7 18 -10 9 -11 8 -5 -6z"/>
<path d="M4370 900 c0 -5 5 -10 11 -10 5 0 7 5 4 10 -3 6 -8 10 -11 10 -2 0
-4 -4 -4 -10z"/>
<path d="M931 872 c8 -12 22 -25 31 -28 10 -3 17 -10 15 -16 -1 -6 5 -13 13
-15 12 -4 12 -3 2 5 -8 5 -13 12 -13 16 1 4 -13 19 -30 33 -28 24 -30 25 -18
5z"/>
<path d="M910 860 c0 -5 5 -10 11 -10 5 0 7 5 4 10 -3 6 -8 10 -11 10 -2 0 -4
-4 -4 -10z"/>
<path d="M4350 860 c0 -5 5 -10 11 -10 5 0 7 5 4 10 -3 6 -8 10 -11 10 -2 0
-4 -4 -4 -10z"/>
<path d="M4300 830 c-6 -11 -8 -20 -6 -20 3 0 10 9 16 20 6 11 8 20 6 20 -3 0
-10 -9 -16 -20z"/>
<path d="M935 820 c-3 -6 1 -7 9 -4 18 7 21 14 7 14 -6 0 -13 -4 -16 -10z"/>
<path d="M4311 807 c-13 -21 -12 -21 5 -5 10 10 16 20 13 22 -3 3 -11 -5 -18
-17z"/>
<path d="M984 784 c-18 -14 -18 -15 4 -4 12 6 22 13 22 15 0 8 -5 6 -26 -11z"/>
<path d="M1015 780 c-3 -5 -1 -10 4 -10 6 0 11 5 11 10 0 6 -2 10 -4 10 -3 0
-8 -4 -11 -10z"/>
<path d="M4250 760 c0 -11 2 -20 4 -20 2 0 6 9 9 20 3 11 1 20 -4 20 -5 0 -9
-9 -9 -20z"/>
<path d="M4280 760 c-9 -6 -10 -10 -3 -10 6 0 15 5 18 10 8 12 4 12 -15 0z"/>
<path d="M1015 751 c-3 -5 0 -13 6 -17 7 -4 9 -3 5 4 -3 6 3 12 16 15 23 4 23
4 1 6 -12 0 -24 -3 -28 -8z"/>
<path d="M1056 725 c-9 -26 -7 -32 5 -12 6 10 9 21 6 23 -2 3 -7 -2 -11 -11z"/>
<path d="M4230 719 c0 -5 5 -7 10 -4 6 3 10 8 10 11 0 2 -4 4 -10 4 -5 0 -10
-5 -10 -11z"/>
<path d="M4210 711 c0 -6 4 -13 10 -16 6 -3 7 1 4 9 -7 18 -14 21 -14 7z"/>
<path d="M4181 690 c16 -33 16 -33 23 -13 4 9 4 14 0 10 -4 -4 -13 1 -21 11
-12 15 -13 14 -2 -8z"/>
<path d="M1136 677 c5 -14 2 -16 -12 -11 -16 5 -16 4 -4 -5 20 -14 39 4 21 22
-10 10 -11 9 -5 -6z"/>
<path d="M4145 672 c3 -3 -1 -12 -7 -21 -10 -13 -10 -14 1 -4 7 6 19 10 25 9
6 -2 8 -1 3 1 -4 3 -5 8 -3 12 3 4 -1 8 -9 8 -8 0 -13 -3 -10 -5z"/>
<path d="M1090 663 c0 -6 8 -17 18 -24 16 -13 16 -13 2 6 -8 11 -16 22 -17 24
-2 2 -3 0 -3 -6z"/>
<path d="M1159 658 c-5 -18 -6 -38 -1 -34 7 8 12 36 6 36 -2 0 -4 -1 -5 -2z"/>
<path d="M4117 629 c7 -7 15 -10 18 -7 3 3 -2 9 -12 12 -14 6 -15 5 -6 -5z"/>
<path d="M4090 620 c0 -5 5 -10 11 -10 5 0 7 5 4 10 -3 6 -8 10 -11 10 -2 0
-4 -4 -4 -10z"/>
<path d="M4070 610 c0 -6 7 -13 15 -16 8 -4 12 -11 8 -17 -3 -6 -1 -7 5 -3 15
9 15 9 -8 29 -11 9 -20 12 -20 7z"/>
<path d="M1150 601 c0 -6 4 -13 10 -16 6 -3 7 1 4 9 -7 18 -14 21 -14 7z"/>
<path d="M1205 600 c-3 -6 1 -7 9 -4 18 7 21 14 7 14 -6 0 -13 -4 -16 -10z"/>
<path d="M1216 581 c-3 -5 2 -15 12 -22 16 -13 16 -13 2 5 -14 18 -13 19 3 13
11 -4 16 -3 12 3 -8 12 -22 13 -29 1z"/>
<path d="M4051 572 c-7 -14 -6 -19 4 -19 7 0 11 7 7 15 -4 11 -1 13 8 7 9 -5
11 -4 6 3 -10 16 -14 15 -25 -6z"/>
<path d="M1260 571 c0 -10 19 -25 25 -20 1 2 -3 10 -11 17 -8 7 -14 8 -14 3z"/>
<path d="M3997 550 c-16 -19 -16 -20 3 -17 11 2 23 7 27 12 5 4 2 4 -6 0 -11
-6 -13 -4 -8 8 8 22 5 21 -16 -3z"/>
<path d="M1260 530 c6 -11 13 -20 16 -20 2 0 0 9 -6 20 -6 11 -13 20 -16 20
-2 0 0 -9 6 -20z"/>
<path d="M1292 520 c0 -14 2 -19 5 -12 2 6 2 18 0 25 -3 6 -5 1 -5 -13z"/>
<path d="M4026 522 c-3 -5 1 -9 9 -9 8 0 12 4 9 9 -3 4 -7 8 -9 8 -2 0 -6 -4
-9 -8z"/>
<path d="M3984 504 c-18 -14 -18 -15 4 -4 12 6 22 13 22 15 0 8 -5 6 -26 -11z"/>
<path d="M1320 490 c6 -11 13 -20 16 -20 2 0 0 9 -6 20 -6 11 -13 20 -16 20
-2 0 0 -9 6 -20z"/>
<path d="M1348 479 c-4 -21 -1 -26 11 -24 9 1 20 -3 24 -9 6 -7 7 -7 5 2 -2 8
-8 13 -13 12 -6 -1 -13 9 -16 22 -5 23 -5 23 -11 -3z"/>
<path d="M3936 474 c-5 -14 -4 -15 9 -4 17 14 19 20 6 20 -5 0 -12 -7 -15 -16z"/>
<path d="M3877 455 c-4 -8 -3 -16 1 -19 4 -3 9 4 9 15 2 23 -3 25 -10 4z"/>
<path d="M1406 444 c-4 -9 -4 -19 -1 -22 3 -3 5 0 5 7 0 7 4 9 10 6 6 -3 7 1
4 9 -8 20 -10 20 -18 0z"/>
<path d="M3900 446 c0 -2 9 -6 20 -9 11 -3 18 -1 14 4 -5 9 -34 13 -34 5z"/>
<path d="M3835 430 c3 -5 8 -10 11 -10 2 0 4 5 4 10 0 6 -5 10 -11 10 -5 0 -7
-4 -4 -10z"/>
<path d="M1470 420 c0 -5 5 -10 10 -10 6 0 10 5 10 10 0 6 -4 10 -10 10 -5 0
-10 -4 -10 -10z"/>
<path d="M3810 420 c0 -5 5 -10 11 -10 5 0 7 5 4 10 -3 6 -8 10 -11 10 -2 0
-4 -4 -4 -10z"/>
<path d="M1430 410 c8 -5 20 -10 25 -10 6 0 3 5 -5 10 -8 5 -19 10 -25 10 -5
0 -3 -5 5 -10z"/>
<path d="M1510 380 c0 -5 5 -10 10 -10 6 0 10 5 10 10 0 6 -4 10 -10 10 -5 0
-10 -4 -10 -10z"/>
<path d="M3840 380 c-9 -6 -10 -10 -3 -10 6 0 15 5 18 10 8 12 4 12 -15 0z"/>
<path d="M3730 371 c0 -6 4 -13 10 -16 6 -3 7 1 4 9 -7 18 -14 21 -14 7z"/>
<path d="M1540 366 c0 -2 7 -6 15 -10 8 -3 15 -1 15 4 0 6 -7 10 -15 10 -8 0
-15 -2 -15 -4z"/>
<path d="M3703 357 c0 -8 6 -14 14 -14 9 0 10 4 2 14 -6 7 -12 13 -14 13 -1 0
-2 -6 -2 -13z"/>
<path d="M3785 360 c-3 -6 1 -7 9 -4 18 7 21 14 7 14 -6 0 -13 -4 -16 -10z"/>
<path d="M1515 351 c-3 -5 -2 -12 3 -15 5 -3 9 1 9 9 0 17 -3 19 -12 6z"/>
<path d="M1576 341 c-3 -4 0 -13 6 -21 8 -12 9 -11 4 3 -5 15 -2 17 13 12 11
-3 22 -2 24 2 3 4 -6 9 -19 9 -13 1 -26 -1 -28 -5z"/>
<path d="M3650 340 c-9 -6 -10 -10 -3 -10 6 0 15 5 18 10 8 12 4 12 -15 0z"/>
<path d="M1640 320 c8 -5 20 -10 25 -10 6 0 3 5 -5 10 -8 5 -19 10 -25 10 -5
0 -3 -5 5 -10z"/>
<path d="M3624 321 c7 -11 46 -35 46 -28 0 3 -12 12 -26 22 -15 9 -23 12 -20
6z"/>
<path d="M3690 321 c0 -9 38 -12 44 -3 2 4 -7 8 -20 8 -13 1 -24 -1 -24 -5z"/>
<path d="M1628 303 c6 -2 9 -10 6 -15 -4 -7 -2 -8 5 -4 13 9 5 26 -12 25 -9 0
-8 -2 1 -6z"/>
<path d="M1695 300 c-3 -5 -1 -10 4 -10 6 0 11 5 11 10 0 6 -2 10 -4 10 -3 0
-8 -4 -11 -10z"/>
<path d="M1670 291 c0 -6 4 -13 10 -16 6 -3 7 1 4 9 -7 18 -14 21 -14 7z"/>
<path d="M1721 284 c0 -11 3 -14 6 -6 3 7 2 16 -1 19 -3 4 -6 -2 -5 -13z"/>
<path d="M3551 273 c7 -12 15 -20 18 -17 3 2 -3 12 -13 22 -17 16 -18 16 -5
-5z"/>
<path d="M3636 282 c-3 -5 1 -9 9 -9 8 0 12 4 9 9 -3 4 -7 8 -9 8 -2 0 -6 -4
-9 -8z"/>
<path d="M1734 259 c-3 -6 -1 -16 5 -22 9 -9 10 -7 5 8 -7 18 -6 19 9 6 10 -8
19 -12 22 -10 2 3 -4 10 -15 17 -13 8 -21 8 -26 1z"/>
<path d="M1791 260 c3 -30 -1 -41 -13 -34 -7 4 -8 3 -4 -4 10 -16 14 -15 25 6
6 12 6 23 0 33 -8 12 -10 12 -8 -1z"/>
<path d="M3490 260 c0 -5 5 -10 11 -10 5 0 7 5 4 10 -3 6 -8 10 -11 10 -2 0
-4 -4 -4 -10z"/>
<path d="M3524 259 c-4 -7 -3 -9 4 -5 5 3 13 0 15 -6 4 -9 6 -10 6 -1 1 17
-16 25 -25 12z"/>
<path d="M1835 240 c-3 -5 -1 -10 4 -10 6 0 11 5 11 10 0 6 -2 10 -4 10 -3 0
-8 -4 -11 -10z"/>
<path d="M3460 235 c0 -8 2 -15 4 -15 2 0 6 7 10 15 3 8 1 15 -4 15 -6 0 -10
-7 -10 -15z"/>
<path d="M1880 231 c0 -7 -4 -10 -9 -7 -5 3 -16 -5 -25 -19 -10 -15 -12 -26
-6 -30 6 -4 10 -3 9 2 -4 14 13 43 21 38 10 -6 24 14 16 22 -3 4 -6 1 -6 -6z"/>
<path d="M3396 212 l-19 -27 24 22 c12 12 21 24 18 27 -2 2 -13 -8 -23 -22z"/>
<path d="M1814 222 c3 -5 0 -13 -6 -15 -9 -4 -10 -6 -1 -6 17 -1 25 16 12 25
-7 4 -9 3 -5 -4z"/>
<path d="M3433 223 c4 -3 -1 -12 -11 -20 -15 -13 -15 -13 6 -3 23 11 30 30 10
30 -6 0 -8 -3 -5 -7z"/>
<path d="M1879 193 c-12 -16 -12 -17 2 -5 13 10 18 10 28 -1 6 -8 8 -16 5 -19
-3 -3 0 -9 7 -14 8 -4 10 -3 5 4 -4 7 -2 12 3 12 6 0 2 9 -9 20 -24 24 -24 24
-41 3z"/>
<path d="M1935 200 c-3 -5 -1 -10 4 -10 6 0 11 5 11 10 0 6 -2 10 -4 10 -3 0
-8 -4 -11 -10z"/>
<path d="M1968 198 c11 -14 10 -17 -5 -21 -16 -4 -16 -5 -1 -6 25 -2 30 15 10
30 -15 13 -16 12 -4 -3z"/>
<path d="M3315 200 c-3 -5 -1 -10 4 -10 6 0 11 5 11 10 0 6 -2 10 -4 10 -3 0
-8 -4 -11 -10z"/>
<path d="M3267 184 c7 -3 15 -5 19 -4 4 1 11 -4 16 -12 8 -11 9 -10 6 1 -2 8
-15 15 -29 17 -13 1 -18 0 -12 -2z"/>
<path d="M2022 171 c-11 -6 -10 -10 4 -15 20 -8 32 0 18 14 -5 5 -15 5 -22 1z"/>
<path d="M3240 160 c0 -11 -5 -19 -12 -17 -6 1 -13 -7 -15 -18 -2 -16 -1 -16
5 -4 4 9 14 15 23 14 12 -2 15 3 11 21 -5 29 -12 31 -12 4z"/>
<path d="M2078 154 c-17 -9 -25 -20 -21 -29 3 -8 7 -15 10 -15 3 0 2 7 -1 16
-5 13 -2 15 15 11 11 -3 18 -3 15 0 -3 4 -1 12 5 20 13 15 12 15 -23 -3z"/>
<path d="M3266 157 c3 -10 9 -15 12 -12 3 3 0 11 -7 18 -10 9 -11 8 -5 -6z"/>
<path d="M1980 146 c0 -2 11 -6 25 -8 13 -3 22 -1 19 3 -5 9 -44 13 -44 5z"/>
<path d="M2110 140 c0 -5 5 -10 10 -10 6 0 10 5 10 10 0 6 -4 10 -10 10 -5 0
-10 -4 -10 -10z"/>
<path d="M3074 138 c-4 -7 -3 -8 4 -4 11 7 17 -6 13 -27 -1 -5 3 -6 9 -2 7 4
7 12 0 26 -12 22 -16 23 -26 7z"/>
<path d="M2233 125 c0 -8 4 -15 9 -15 4 0 8 4 8 9 0 6 -4 12 -8 15 -5 3 -9 -1
-9 -9z"/>
<path d="M3015 131 c-6 -11 13 -26 22 -17 4 3 1 6 -6 6 -7 0 -9 5 -6 10 3 6 4
10 1 10 -3 0 -7 -4 -11 -9z"/>
<path d="M3046 127 c3 -10 9 -15 12 -12 3 3 0 11 -7 18 -10 9 -11 8 -5 -6z"/>
<path d="M3116 127 c3 -10 9 -15 12 -12 3 3 0 11 -7 18 -10 9 -11 8 -5 -6z"/>
<path d="M2140 126 c0 -2 7 -6 15 -10 8 -3 15 -1 15 4 0 6 -7 10 -15 10 -8 0
-15 -2 -15 -4z"/>
<path d="M2261 106 c-9 -10 -8 -16 4 -26 10 -9 15 -9 15 -1 0 6 -6 11 -12 11
-8 0 -5 7 6 15 11 8 15 15 9 15 -6 0 -16 -6 -22 -14z"/>
<path d="M2335 110 c-3 -6 1 -12 9 -15 9 -3 23 -7 32 -10 8 -3 12 0 9 5 -3 6
-15 10 -26 10 -11 0 -17 5 -14 10 3 6 4 10 1 10 -3 0 -8 -5 -11 -10z"/>
<path d="M3066 103 c-6 -14 -5 -15 5 -6 7 7 10 15 7 18 -3 3 -9 -2 -12 -12z"/>
<path d="M2135 100 c3 -5 8 -10 11 -10 2 0 4 5 4 10 0 6 -5 10 -11 10 -5 0 -7
-4 -4 -10z"/>
<path d="M2213 89 c-2 -23 3 -25 10 -4 4 8 3 16 -1 19 -4 3 -9 -4 -9 -15z"/>
<path d="M2296 102 c-2 -4 0 -14 6 -22 8 -12 9 -12 5 2 -3 9 -1 19 6 22 9 3 9
5 0 5 -6 1 -14 -3 -17 -7z"/>
<path d="M2537 103 c-4 -3 -7 -13 -7 -22 1 -13 3 -13 11 2 11 19 8 33 -4 20z"/>
<path d="M2791 88 c5 -10 13 -17 17 -16 4 1 15 -2 25 -7 10 -4 21 -5 24 -1 4
3 -1 6 -10 6 -9 0 -17 5 -17 11 0 6 -7 8 -16 5 -11 -4 -15 -2 -11 7 3 8 -1 14
-8 14 -10 0 -11 -5 -4 -19z"/>
<path d="M2882 98 c-6 -6 -12 -16 -12 -22 0 -5 7 -1 16 10 14 17 15 17 10 1
-3 -10 -2 -16 3 -12 5 3 11 0 13 -7 3 -7 7 -4 12 7 4 11 4 16 0 12 -4 -4 -12
0 -18 9 -9 12 -14 12 -24 2z"/>
<path d="M2990 100 c0 -5 5 -10 10 -10 6 0 10 5 10 10 0 6 -4 10 -10 10 -5 0
-10 -4 -10 -10z"/>
<path d="M2588 93 c6 -2 18 -2 25 0 6 3 1 5 -13 5 -14 0 -19 -2 -12 -5z"/>
<path d="M2733 88 c5 -17 30 -17 33 0 1 7 0 8 -3 2 -2 -5 -9 -10 -14 -10 -6 0
-7 5 -4 10 3 6 1 10 -5 10 -7 0 -10 -6 -7 -12z"/>
<path d="M3027 89 c7 -7 15 -10 18 -7 3 3 -2 9 -12 12 -14 6 -15 5 -6 -5z"/>
<path d="M2435 80 c3 -5 11 -10 16 -10 6 0 7 5 4 10 -3 6 -11 10 -16 10 -6 0
-7 -4 -4 -10z"/>
<path d="M2486 75 c4 -8 8 -15 10 -15 2 0 4 7 4 15 0 8 -4 15 -10 15 -5 0 -7
-7 -4 -15z"/>
<path d="M2550 68 c-12 -22 -12 -22 6 -6 10 10 15 20 12 24 -4 3 -12 -5 -18
-18z"/>
<path d="M2620 80 c-9 -6 -10 -10 -3 -10 6 0 15 5 18 10 8 12 4 12 -15 0z"/>
<path d="M2670 70 c-6 -11 -9 -20 -8 -20 2 0 11 9 21 20 9 11 13 20 7 20 -5 0
-14 -9 -20 -20z"/>
<path d="M2965 80 c3 -5 8 -10 11 -10 2 0 4 5 4 10 0 6 -5 10 -11 10 -5 0 -7
-4 -4 -10z"/>
<path d="M2392 71 c-11 -7 -11 -9 0 -14 9 -3 15 1 15 9 0 8 -1 14 -1 14 -1 0
-7 -4 -14 -9z"/>
<path d="M2716 67 c3 -10 9 -15 12 -12 3 3 0 11 -7 18 -10 9 -11 8 -5 -6z"/>
<path d="M2510 60 c0 -5 5 -10 11 -10 5 0 7 5 4 10 -3 6 -8 10 -11 10 -2 0 -4
-4 -4 -10z"/>
<path d="M2575 60 c-3 -6 1 -7 9 -4 18 7 21 14 7 14 -6 0 -13 -4 -16 -10z"/>
<path d="M2694 62 c3 -5 0 -13 -6 -15 -9 -4 -10 -6 -1 -6 17 -1 25 16 12 25
-7 4 -9 3 -5 -4z"/>
<path d="M2630 51 c0 -5 7 -12 16 -15 14 -5 15 -4 4 9 -14 17 -20 19 -20 6z"/>
<path d="M2475 40 c3 -5 8 -10 11 -10 2 0 4 5 4 10 0 6 -5 10 -11 10 -5 0 -7
-4 -4 -10z"/>
<path d="M2756 33 c-6 -14 -5 -15 5 -6 7 7 10 15 7 18 -3 3 -9 -2 -12 -12z"/>
</g>
</svg>
